<?xml version="1.0" standalone="no"?>
<!DOCTYPE svg PUBLIC "-//W3C//DTD SVG 20010904//EN"
 "http://www.w3.org/TR/2001/REC-SVG-20010904/DTD/svg10.dtd">
<svg version="1.0" xmlns="http://www.w3.org/2000/svg"
 width="400.000000pt" height="400.000000pt" viewBox="0 0 400.000000 400.000000"
 preserveAspectRatio="xMidYMid meet">
<metadata>
Created by potrace 1.14, written by Peter Selinger 2001-2017
</metadata>
<g transform="translate(0.000000,400.000000) scale(0.100000,-0.100000)"
fill="#000000" stroke="none">
<path d="M1908 3975 c-2 -2 -35 -7 -73 -10 -181 -15 -210 -20 -345 -61 -263
-80 -300 -95 -480 -198 -30 -18 -75 -43 -100 -56 -25 -13 -68 -44 -96 -69 -28
-25 -88 -77 -134 -116 -45 -38 -87 -74 -91 -80 -5 -5 -28 -33 -51 -60 -24 -28
-52 -64 -63 -79 -11 -16 -41 -54 -67 -85 -43 -51 -108 -163 -199 -341 -18 -36
-38 -68 -43 -72 -6 -4 -8 -8 -4 -8 4 0 2 -17 -6 -37 -14 -41 -21 -62 -61 -198
-15 -49 -31 -101 -36 -115 -5 -14 -11 -50 -13 -80 -2 -30 -8 -89 -12 -130 -10
-97 -10 -264 0 -360 5 -41 9 -86 11 -100 2 -22 17 -126 20 -140 0 -3 6 -21 12
-40 6 -19 24 -75 38 -125 53 -174 67 -209 139 -339 41 -72 83 -148 93 -168 20
-38 65 -93 158 -197 28 -31 63 -73 79 -93 15 -21 49 -53 75 -73 89 -68 126
-97 151 -118 69 -61 119 -92 277 -175 150 -79 220 -111 258 -118 23 -4 247
-74 256 -80 6 -3 31 -8 57 -10 26 -2 70 -6 97 -8 242 -24 316 -24 465 -1 14 2
57 6 95 10 39 3 97 15 131 26 33 11 69 21 80 23 39 8 250 77 274 90 14 8 45
25 70 38 136 73 272 153 294 173 14 13 49 43 78 67 29 24 66 55 83 68 55 46
153 149 201 212 27 35 57 72 67 83 39 41 77 105 162 269 74 142 128 278 150
376 1 8 12 43 24 77 23 67 27 90 36 198 3 39 8 97 12 130 10 96 6 210 -12 350
-2 17 -7 57 -10 90 -3 33 -13 85 -22 115 -9 30 -16 57 -16 60 0 3 -4 16 -9 30
-5 14 -23 70 -40 125 -25 87 -79 206 -138 310 -72 124 -90 158 -90 162 0 4
-21 29 -47 58 -27 28 -77 87 -113 130 -74 90 -110 127 -166 171 -21 18 -63 52
-93 75 -30 24 -75 60 -100 78 -55 41 -424 231 -450 231 -9 0 -44 9 -77 19
-156 51 -235 71 -299 77 -38 3 -86 8 -105 10 -57 7 -277 14 -282 9z"/>
</g>
</svg>
